<mxfile host="65bd71144e">
    <diagram id="7wWfOI0LtiimTKxbhTSa" name="Page-1">
        <mxGraphModel dx="9903" dy="6293" grid="1" gridSize="10" guides="1" tooltips="1" connect="1" arrows="1" fold="1" page="1" pageScale="1" pageWidth="850" pageHeight="1100" math="0" shadow="0">
            <root>
                <mxCell id="0"/>
                <mxCell id="1" parent="0"/>
                <mxCell id="9" value="&lt;p style=&quot;margin:0px;margin-top:4px;text-align:center;&quot;&gt;&lt;i&gt;&amp;lt;&amp;lt;Interface&amp;gt;&amp;gt;&lt;/i&gt;&lt;br&gt;&lt;b&gt;HandleButtonClick&lt;/b&gt;&lt;/p&gt;&lt;hr size=&quot;1&quot; style=&quot;border-style:solid;&quot;&gt;&lt;p style=&quot;margin:0px;margin-left:4px;&quot;&gt;&lt;br&gt;&lt;/p&gt;&lt;hr size=&quot;1&quot; style=&quot;border-style:solid;&quot;&gt;&lt;p style=&quot;margin:0px;margin-left:4px;&quot;&gt;+ OnClick(): void&lt;br&gt;&lt;/p&gt;" style="verticalAlign=top;align=left;overflow=fill;html=1;whiteSpace=wrap;" parent="1" vertex="1">
                    <mxGeometry x="2000" y="885" width="190" height="90" as="geometry"/>
                </mxCell>
                <mxCell id="11" value="&lt;p style=&quot;margin:0px;margin-top:4px;text-align:center;&quot;&gt;&lt;b&gt;APIConnection&lt;/b&gt;&lt;/p&gt;&lt;hr size=&quot;1&quot; style=&quot;border-style:solid;&quot;&gt;&lt;p style=&quot;margin:0px;margin-left:4px;&quot;&gt;- _returnedImage : Texture2D&lt;/p&gt;&lt;p style=&quot;margin:0px;margin-left:4px;&quot;&gt;- _bananaResponse : DataBananaResponse&lt;/p&gt;&lt;p style=&quot;margin:0px;margin-left:4px;&quot;&gt;- _urlUnlocked : bool&lt;/p&gt;&lt;p style=&quot;margin:0px;margin-left:4px;&quot;&gt;- _imageUnlocked : bool&lt;/p&gt;&lt;p style=&quot;margin:0px;margin-left:4px;&quot;&gt;- &lt;u&gt;API_URL &lt;/u&gt;: string&lt;/p&gt;&lt;hr size=&quot;1&quot; style=&quot;border-style:solid;&quot;&gt;&lt;p style=&quot;margin:0px;margin-left:4px;&quot;&gt;+ FetchBananaDataAsync(): void&lt;/p&gt;&lt;p style=&quot;margin:0px;margin-left:4px;&quot;&gt;+ LoadImageAsync(string) : Texture2D&lt;/p&gt;" style="verticalAlign=top;align=left;overflow=fill;html=1;whiteSpace=wrap;" parent="1" vertex="1">
                    <mxGeometry x="470" y="160" width="280" height="160" as="geometry"/>
                </mxCell>
                <mxCell id="13" value="&lt;p style=&quot;margin:0px;margin-top:4px;text-align:center;&quot;&gt;&lt;b&gt;FireBaseManager&lt;/b&gt;&lt;/p&gt;&lt;hr size=&quot;1&quot; style=&quot;border-style:solid;&quot;&gt;&lt;p style=&quot;margin:0px;margin-left:4px;&quot;&gt;- _client : HttpClient&lt;/p&gt;&lt;p style=&quot;margin:0px;margin-left:4px;&quot;&gt;- &lt;u&gt;BASE_URL&lt;/u&gt;: string&lt;/p&gt;&lt;hr size=&quot;1&quot; style=&quot;border-style:solid;&quot;&gt;&lt;p style=&quot;margin:0px;margin-left:4px;&quot;&gt;+ Register(string,string,string): RegisterResponse&lt;/p&gt;&lt;p style=&quot;margin:0px;margin-left:4px;&quot;&gt;+ Login(string, string) : LoginResponse&lt;/p&gt;&lt;p style=&quot;margin:0px;margin-left:4px;&quot;&gt;+ GetLeaderboard(string) : GetUsers&lt;/p&gt;&lt;p style=&quot;margin:0px;margin-left:4px;&quot;&gt;+ UpdateScore(int,string) : void&lt;/p&gt;&lt;p style=&quot;margin:0px;margin-left:4px;&quot;&gt;+ ForgetPassword(string) : string&lt;/p&gt;&lt;p style=&quot;margin:0px;margin-left:4px;&quot;&gt;- ExtractErrorMessage(string) : string&lt;/p&gt;" style="verticalAlign=top;align=left;overflow=fill;html=1;whiteSpace=wrap;" parent="1" vertex="1">
                    <mxGeometry x="470" y="780" width="280" height="160" as="geometry"/>
                </mxCell>
                <mxCell id="14" value="&lt;p style=&quot;margin:0px;margin-top:4px;text-align:center;&quot;&gt;&lt;b&gt;Player&lt;/b&gt;&lt;/p&gt;&lt;hr size=&quot;1&quot; style=&quot;border-style:solid;&quot;&gt;&lt;p style=&quot;margin:0px;margin-left:4px;&quot;&gt;-&amp;nbsp; _token : string&lt;/p&gt;&lt;p style=&quot;margin:0px;margin-left:4px;&quot;&gt;- _username&amp;nbsp;: string&lt;/p&gt;&lt;p style=&quot;margin:0px;margin-left:4px;&quot;&gt;- _score : int&lt;/p&gt;&lt;p style=&quot;margin:0px;margin-left:4px;&quot;&gt;- _expTime : long&lt;/p&gt;&lt;hr size=&quot;1&quot; style=&quot;border-style:solid;&quot;&gt;&lt;p style=&quot;margin:0px;margin-left:4px;&quot;&gt;+ Player(string, string,int,long) : Player&lt;/p&gt;" style="verticalAlign=top;align=left;overflow=fill;html=1;whiteSpace=wrap;" parent="1" vertex="1">
                    <mxGeometry x="470" y="480" width="280" height="120" as="geometry"/>
                </mxCell>
                <mxCell id="15" value="&lt;p style=&quot;margin:0px;margin-top:4px;text-align:center;&quot;&gt;&lt;b&gt;APIController&lt;/b&gt;&lt;/p&gt;&lt;hr size=&quot;1&quot; style=&quot;border-style:solid;&quot;&gt;&lt;p style=&quot;margin:0px;margin-left:4px;&quot;&gt;- _apiConnection: APIConnection&lt;/p&gt;&lt;hr size=&quot;1&quot; style=&quot;border-style:solid;&quot;&gt;&lt;p style=&quot;margin:0px;margin-left:4px;&quot;&gt;+ APIController() : APIController&lt;/p&gt;" style="verticalAlign=top;align=left;overflow=fill;html=1;whiteSpace=wrap;" parent="1" vertex="1">
                    <mxGeometry x="890" y="195" width="320" height="90" as="geometry"/>
                </mxCell>
                <mxCell id="17" value="&lt;p style=&quot;margin:0px;margin-top:4px;text-align:center;&quot;&gt;&lt;b&gt;FireBaseController&lt;/b&gt;&lt;/p&gt;&lt;hr size=&quot;1&quot; style=&quot;border-style:solid;&quot;&gt;&lt;p style=&quot;margin:0px;margin-left:4px;&quot;&gt;- _firebaseManager: FirebaseManager&lt;/p&gt;&lt;hr size=&quot;1&quot; style=&quot;border-style:solid;&quot;&gt;&lt;p style=&quot;margin:0px;margin-left:4px;&quot;&gt;+ FireBaseController():&amp;nbsp;&lt;span style=&quot;color: rgb(63, 63, 63); background-color: transparent;&quot;&gt;FireBaseController&lt;/span&gt;&lt;/p&gt;&lt;p style=&quot;margin:0px;margin-left:4px;&quot;&gt;- ResponseParser(string, string, long, int, string) : string&lt;/p&gt;&lt;p style=&quot;margin:0px;margin-left:4px;&quot;&gt;+ RegisterUser(string,string,string) : string&lt;/p&gt;&lt;p style=&quot;margin:0px;margin-left:4px;&quot;&gt;+ LoginUser(string,string) : string&lt;/p&gt;&lt;p style=&quot;margin:0px;margin-left:4px;&quot;&gt;+ GetPlayerData(string) : GetUsers&lt;/p&gt;&lt;p style=&quot;margin:0px;margin-left:4px;&quot;&gt;+ UpdatScore(int,string) : void&lt;/p&gt;&lt;p style=&quot;margin:0px;margin-left:4px;&quot;&gt;+ ConnectForgetPassword(string) : string&lt;/p&gt;" style="verticalAlign=top;align=left;overflow=fill;html=1;whiteSpace=wrap;" parent="1" vertex="1">
                    <mxGeometry x="890" y="780" width="320" height="160" as="geometry"/>
                </mxCell>
                <mxCell id="18" value="&lt;p style=&quot;margin:0px;margin-top:4px;text-align:center;&quot;&gt;&lt;b&gt;PlayerController&lt;/b&gt;&lt;/p&gt;&lt;hr size=&quot;1&quot; style=&quot;border-style:solid;&quot;&gt;&lt;p style=&quot;margin:0px;margin-left:4px;&quot;&gt;-&amp;nbsp; _player : Player&lt;/p&gt;&lt;hr size=&quot;1&quot; style=&quot;border-style:solid;&quot;&gt;&lt;p style=&quot;margin:0px;margin-left:4px;&quot;&gt;+ PlayerController(string, string,int,long) : PlayerController&lt;/p&gt;&lt;p style=&quot;margin:0px;margin-left:4px;&quot;&gt;+ LogOut() : void&lt;/p&gt;" style="verticalAlign=top;align=left;overflow=fill;html=1;whiteSpace=wrap;" parent="1" vertex="1">
                    <mxGeometry x="890" y="480" width="320" height="120" as="geometry"/>
                </mxCell>
                <mxCell id="21" value="&lt;p style=&quot;margin:0px;margin-top:4px;text-align:center;&quot;&gt;&lt;b&gt;HandleAPICall&lt;/b&gt;&lt;/p&gt;&lt;hr size=&quot;1&quot; style=&quot;border-style:solid;&quot;&gt;&lt;p style=&quot;margin:0px;margin-left:4px;&quot;&gt;- _image : Image&lt;/p&gt;&lt;p style=&quot;margin:0px;margin-left:4px;&quot;&gt;- _hint : TMP_Text&lt;/p&gt;&lt;p style=&quot;margin:0px;margin-left:4px;&quot;&gt;- _answerField : TMP_InputField&lt;/p&gt;&lt;p style=&quot;margin:0px;margin-left:4px;&quot;&gt;- _apiController : APIController&lt;/p&gt;&lt;p style=&quot;margin:0px;margin-left:4px;&quot;&gt;- _hintArray[] : string&lt;/p&gt;&lt;hr size=&quot;1&quot; style=&quot;border-style:solid;&quot;&gt;&lt;p style=&quot;margin:0px;margin-left:4px;&quot;&gt;- Start() : void&lt;/p&gt;&lt;p style=&quot;margin:0px;margin-left:4px;&quot;&gt;- Update() : void&lt;/p&gt;&lt;p style=&quot;margin:0px;margin-left:4px;&quot;&gt;+ OnClick() : void&lt;/p&gt;&lt;p style=&quot;margin:0px;margin-left:4px;&quot;&gt;- LoadImage() : void&lt;/p&gt;&lt;p style=&quot;margin:0px;margin-left:4px;&quot;&gt;- ValueEntered() : void&lt;/p&gt;" style="verticalAlign=top;align=left;overflow=fill;html=1;whiteSpace=wrap;" parent="1" vertex="1">
                    <mxGeometry x="1440" y="145" width="320" height="190" as="geometry"/>
                </mxCell>
                <mxCell id="22" value="&lt;p style=&quot;margin:0px;margin-top:4px;text-align:center;&quot;&gt;&lt;b&gt;HandleTimer&lt;/b&gt;&lt;/p&gt;&lt;hr size=&quot;1&quot; style=&quot;border-style:solid;&quot;&gt;&lt;p style=&quot;margin:0px;margin-left:4px;&quot;&gt;- _timer : float&lt;/p&gt;&lt;p style=&quot;margin:0px;margin-left:4px;&quot;&gt;- _timerRunning : bool&lt;/p&gt;&lt;p style=&quot;margin:0px;margin-left:4px;&quot;&gt;- _timerText : TMP_Text&lt;/p&gt;&lt;hr size=&quot;1&quot; style=&quot;border-style:solid;&quot;&gt;&lt;p style=&quot;margin:0px;margin-left:4px;&quot;&gt;- Start() : void&lt;/p&gt;&lt;p style=&quot;margin:0px;margin-left:4px;&quot;&gt;- Update() : void&lt;/p&gt;&lt;p style=&quot;margin:0px;margin-left:4px;&quot;&gt;- UpdateTimer() : void&lt;/p&gt;&lt;p style=&quot;margin:0px;margin-left:4px;&quot;&gt;- HandleTimeUp() : void&lt;/p&gt;&lt;p style=&quot;margin:0px;margin-left:4px;&quot;&gt;- OnDestroy() : void&lt;/p&gt;" style="verticalAlign=top;align=left;overflow=fill;html=1;whiteSpace=wrap;" parent="1" vertex="1">
                    <mxGeometry x="2360" y="10" width="320" height="170" as="geometry"/>
                </mxCell>
                <mxCell id="25" value="&lt;p style=&quot;margin:0px;margin-top:4px;text-align:center;&quot;&gt;&lt;b&gt;HandleGameOver&lt;/b&gt;&lt;/p&gt;&lt;hr size=&quot;1&quot; style=&quot;border-style:solid;&quot;&gt;&lt;p style=&quot;margin:0px;margin-left:4px;&quot;&gt;- _score : float&lt;/p&gt;&lt;p style=&quot;margin:0px;margin-left:4px;&quot;&gt;- _highScore : TMP_Text&lt;/p&gt;&lt;p style=&quot;margin:0px;margin-left:4px;&quot;&gt;- _currentScore : TMP_Text&lt;/p&gt;&lt;p style=&quot;margin:0px;margin-left:4px;&quot;&gt;- _winScore : AudioSource&lt;/p&gt;&lt;p style=&quot;margin:0px;margin-left:4px;&quot;&gt;- _winClip : AudioClip&lt;/p&gt;&lt;p style=&quot;margin: 0px 0px 0px 4px;&quot;&gt;- _loseScore : AudioSource&lt;/p&gt;&lt;p style=&quot;margin: 0px 0px 0px 4px;&quot;&gt;- _loseClip : AudioClip&lt;/p&gt;&lt;hr size=&quot;1&quot; style=&quot;border-style:solid;&quot;&gt;&lt;p style=&quot;margin:0px;margin-left:4px;&quot;&gt;- Start() : void&lt;/p&gt;&lt;p style=&quot;margin:0px;margin-left:4px;&quot;&gt;- ShowScore() : void&lt;/p&gt;" style="verticalAlign=top;align=left;overflow=fill;html=1;whiteSpace=wrap;" parent="1" vertex="1">
                    <mxGeometry x="1440" y="770" width="320" height="180" as="geometry"/>
                </mxCell>
                <mxCell id="26" value="&lt;p style=&quot;margin:0px;margin-top:4px;text-align:center;&quot;&gt;&lt;b&gt;HandleBackClick&lt;/b&gt;&lt;/p&gt;&lt;hr size=&quot;1&quot; style=&quot;border-style:solid;&quot;&gt;&lt;p style=&quot;margin:0px;margin-left:4px;&quot;&gt;&lt;br&gt;&lt;/p&gt;&lt;hr size=&quot;1&quot; style=&quot;border-style:solid;&quot;&gt;&lt;p style=&quot;margin:0px;margin-left:4px;&quot;&gt;+OnClick() : void&lt;/p&gt;" style="verticalAlign=top;align=left;overflow=fill;html=1;whiteSpace=wrap;" parent="1" vertex="1">
                    <mxGeometry x="1440" y="360" width="320" height="80" as="geometry"/>
                </mxCell>
                <mxCell id="28" value="&lt;p style=&quot;margin:0px;margin-top:4px;text-align:center;&quot;&gt;&lt;b&gt;HandleScrolls&lt;/b&gt;&lt;/p&gt;&lt;hr size=&quot;1&quot; style=&quot;border-style:solid;&quot;&gt;&lt;p style=&quot;margin:0px;margin-left:4px;&quot;&gt;- _playerItemPrefab : GameObject&lt;/p&gt;&lt;p style=&quot;margin:0px;margin-left:4px;&quot;&gt;- _contentPanel : Transform&lt;/p&gt;&lt;p style=&quot;margin:0px;margin-left:4px;&quot;&gt;- _rank : TMP_Text&lt;/p&gt;&lt;p style=&quot;margin:0px;margin-left:4px;&quot;&gt;- _score : TMP_Text&lt;/p&gt;&lt;hr size=&quot;1&quot; style=&quot;border-style:solid;&quot;&gt;&lt;p style=&quot;margin:0px;margin-left:4px;&quot;&gt;- Start() : void&lt;/p&gt;&lt;p style=&quot;margin:0px;margin-left:4px;&quot;&gt;- InitiatePopulation() : void&lt;/p&gt;&lt;p style=&quot;margin:0px;margin-left:4px;&quot;&gt;- Populate(GetUsers) : void&lt;/p&gt;" style="verticalAlign=top;align=left;overflow=fill;html=1;whiteSpace=wrap;" parent="1" vertex="1">
                    <mxGeometry x="1440" y="970" width="320" height="150" as="geometry"/>
                </mxCell>
                <mxCell id="31" value="&lt;p style=&quot;margin:0px;margin-top:4px;text-align:center;&quot;&gt;&lt;b&gt;HandleForgetPassword&lt;/b&gt;&lt;/p&gt;&lt;hr size=&quot;1&quot; style=&quot;border-style:solid;&quot;&gt;&lt;p style=&quot;margin:0px;margin-left:4px;&quot;&gt;- _email : TMP_InputField&lt;/p&gt;&lt;p style=&quot;margin:0px;margin-left:4px;&quot;&gt;- _nextPanels[] : GameObject&lt;/p&gt;&lt;hr size=&quot;1&quot; style=&quot;border-style:solid;&quot;&gt;&lt;p style=&quot;margin:0px;margin-left:4px;&quot;&gt;+ NextAction(string) : void&lt;/p&gt;&lt;p style=&quot;margin:0px;margin-left:4px;&quot;&gt;+ OnClick() : void&lt;/p&gt;&lt;p style=&quot;margin:0px;margin-left:4px;&quot;&gt;- ForgetPassword() : void&lt;/p&gt;" style="verticalAlign=top;align=left;overflow=fill;html=1;whiteSpace=wrap;" parent="1" vertex="1">
                    <mxGeometry x="1440" y="1140" width="320" height="120" as="geometry"/>
                </mxCell>
                <mxCell id="32" value="&lt;p style=&quot;margin:0px;margin-top:4px;text-align:center;&quot;&gt;&lt;b&gt;HandleForgetPasswordValidate&lt;/b&gt;&lt;/p&gt;&lt;hr size=&quot;1&quot; style=&quot;border-style:solid;&quot;&gt;&lt;p style=&quot;margin:0px;margin-left:4px;&quot;&gt;- _emailInputField : TMP_InputField&lt;/p&gt;&lt;p style=&quot;margin:0px;margin-left:4px;&quot;&gt;- _warningTextEmail : TMP_Text&lt;/p&gt;&lt;p style=&quot;margin:0px;margin-left:4px;&quot;&gt;- _sendButton : Button&lt;/p&gt;&lt;hr size=&quot;1&quot; style=&quot;border-style:solid;&quot;&gt;&lt;p style=&quot;margin:0px;margin-left:4px;&quot;&gt;-Start() : void&lt;/p&gt;&lt;p style=&quot;margin:0px;margin-left:4px;&quot;&gt;-ValidateForm(string) : void&lt;/p&gt;" style="verticalAlign=top;align=left;overflow=fill;html=1;whiteSpace=wrap;" parent="1" vertex="1">
                    <mxGeometry x="1780" y="1880" width="320" height="120" as="geometry"/>
                </mxCell>
                <mxCell id="33" value="&lt;p style=&quot;margin:0px;margin-top:4px;text-align:center;&quot;&gt;&lt;b&gt;HandleLogin&lt;/b&gt;&lt;/p&gt;&lt;hr size=&quot;1&quot; style=&quot;border-style:solid;&quot;&gt;&lt;p style=&quot;margin:0px;margin-left:4px;&quot;&gt;- _email : TMP_InputField&lt;/p&gt;&lt;p style=&quot;margin:0px;margin-left:4px;&quot;&gt;- _password : TMP_InputField&lt;/p&gt;&lt;p style=&quot;margin:0px;margin-left:4px;&quot;&gt;- _nextPanels[] : GameObject&lt;/p&gt;&lt;p style=&quot;margin:0px;margin-left:4px;&quot;&gt;- _loginButton : Button&lt;/p&gt;&lt;hr size=&quot;1&quot; style=&quot;border-style:solid;&quot;&gt;&lt;p style=&quot;margin:0px;margin-left:4px;&quot;&gt;- Start() : void&lt;/p&gt;&lt;p style=&quot;margin:0px;margin-left:4px;&quot;&gt;+ NextAction(string) : void&lt;/p&gt;&lt;p style=&quot;margin:0px;margin-left:4px;&quot;&gt;+ OnClick() : void&lt;/p&gt;&lt;p style=&quot;margin:0px;margin-left:4px;&quot;&gt;- LoginPlayer() : void&lt;/p&gt;" style="verticalAlign=top;align=left;overflow=fill;html=1;whiteSpace=wrap;" parent="1" vertex="1">
                    <mxGeometry x="1440" y="1280" width="320" height="170" as="geometry"/>
                </mxCell>
                <mxCell id="35" value="&lt;p style=&quot;margin:0px;margin-top:4px;text-align:center;&quot;&gt;&lt;b&gt;HandleLoginValidate&lt;/b&gt;&lt;/p&gt;&lt;hr size=&quot;1&quot; style=&quot;border-style:solid;&quot;&gt;&lt;p style=&quot;margin:0px;margin-left:4px;&quot;&gt;- _emailInputField : TMP_InputField&lt;/p&gt;&lt;p style=&quot;margin:0px;margin-left:4px;&quot;&gt;- _passwordInputField : TMP_InputField&lt;/p&gt;&lt;p style=&quot;margin:0px;margin-left:4px;&quot;&gt;- _warningTextEmail : TMP_Text&lt;/p&gt;&lt;p style=&quot;margin:0px;margin-left:4px;&quot;&gt;&lt;span style=&quot;color: rgb(63, 63, 63);&quot;&gt;- _warningTextPassword : TMP_Text&lt;/span&gt;&lt;/p&gt;&lt;p style=&quot;margin:0px;margin-left:4px;&quot;&gt;- _loginButton : Button&lt;/p&gt;&lt;hr size=&quot;1&quot; style=&quot;border-style:solid;&quot;&gt;&lt;p style=&quot;margin:0px;margin-left:4px;&quot;&gt;-Start() : void&lt;/p&gt;&lt;p style=&quot;margin:0px;margin-left:4px;&quot;&gt;-ValidateForm(string) : void&lt;/p&gt;" style="verticalAlign=top;align=left;overflow=fill;html=1;whiteSpace=wrap;" parent="1" vertex="1">
                    <mxGeometry x="1080" y="1880" width="320" height="150" as="geometry"/>
                </mxCell>
                <mxCell id="37" value="&lt;p style=&quot;margin:0px;margin-top:4px;text-align:center;&quot;&gt;&lt;b&gt;HandleOnClick&lt;/b&gt;&lt;/p&gt;&lt;hr size=&quot;1&quot; style=&quot;border-style:solid;&quot;&gt;&lt;p style=&quot;margin:0px;margin-left:4px;&quot;&gt;-_nextPanel : GameObject&lt;/p&gt;&lt;hr size=&quot;1&quot; style=&quot;border-style:solid;&quot;&gt;&lt;p style=&quot;margin:0px;margin-left:4px;&quot;&gt;+OnClick() : void&lt;/p&gt;" style="verticalAlign=top;align=left;overflow=fill;html=1;whiteSpace=wrap;" parent="1" vertex="1">
                    <mxGeometry x="2360" y="1080" width="320" height="80" as="geometry"/>
                </mxCell>
                <mxCell id="39" value="&lt;p style=&quot;margin:0px;margin-top:4px;text-align:center;&quot;&gt;&lt;b&gt;HandleRegister&lt;/b&gt;&lt;/p&gt;&lt;hr size=&quot;1&quot; style=&quot;border-style:solid;&quot;&gt;&lt;p style=&quot;margin:0px;margin-left:4px;&quot;&gt;- _email : TMP_InputField&lt;/p&gt;&lt;p style=&quot;margin:0px;margin-left:4px;&quot;&gt;- _password : TMP_InputField&lt;/p&gt;&lt;p style=&quot;margin:0px;margin-left:4px;&quot;&gt;- _username : TMP_InputField&lt;/p&gt;&lt;p style=&quot;margin:0px;margin-left:4px;&quot;&gt;- _confirmPassword : TMP_InputField&lt;/p&gt;&lt;p style=&quot;margin:0px;margin-left:4px;&quot;&gt;- _nextPanels[] : GameObject&lt;/p&gt;&lt;hr size=&quot;1&quot; style=&quot;border-style:solid;&quot;&gt;&lt;p style=&quot;margin:0px;margin-left:4px;&quot;&gt;&lt;span style=&quot;background-color: transparent;&quot;&gt;+ NextAction(string) : void&lt;/span&gt;&lt;/p&gt;&lt;p style=&quot;margin:0px;margin-left:4px;&quot;&gt;+ OnClick() : void&lt;/p&gt;&lt;p style=&quot;margin:0px;margin-left:4px;&quot;&gt;- Register() : void&lt;/p&gt;" style="verticalAlign=top;align=left;overflow=fill;html=1;whiteSpace=wrap;" parent="1" vertex="1">
                    <mxGeometry x="1440" y="1470" width="320" height="160" as="geometry"/>
                </mxCell>
                <mxCell id="40" value="&lt;p style=&quot;margin:0px;margin-top:4px;text-align:center;&quot;&gt;&lt;b&gt;HandleRegisterValidate&lt;/b&gt;&lt;/p&gt;&lt;hr size=&quot;1&quot; style=&quot;border-style:solid;&quot;&gt;&lt;p style=&quot;margin:0px;margin-left:4px;&quot;&gt;- _emailInputField : TMP_InputField&lt;/p&gt;&lt;p style=&quot;margin:0px;margin-left:4px;&quot;&gt;- _usernameInputField : TMP_InputField&lt;/p&gt;&lt;p style=&quot;margin:0px;margin-left:4px;&quot;&gt;- _passwordInputField : TMP_InputField&lt;/p&gt;&lt;p style=&quot;margin:0px;margin-left:4px;&quot;&gt;- _confirmPasswordInputField : TMP_InputField&lt;/p&gt;&lt;p style=&quot;margin:0px;margin-left:4px;&quot;&gt;- _warningTextEmail : TMP_Text&lt;/p&gt;&lt;p style=&quot;margin:0px;margin-left:4px;&quot;&gt;- _warningTextUsername : TMP_Text&lt;/p&gt;&lt;p style=&quot;margin:0px;margin-left:4px;&quot;&gt;- _warningTextConfirmPassword : TMP_Text&lt;/p&gt;&lt;p style=&quot;margin:0px;margin-left:4px;&quot;&gt;&lt;span style=&quot;color: rgb(63, 63, 63);&quot;&gt;- _warningTextPassword : TMP_Text&lt;/span&gt;&lt;/p&gt;&lt;p style=&quot;margin:0px;margin-left:4px;&quot;&gt;- _registerButton : Button&lt;/p&gt;&lt;hr size=&quot;1&quot; style=&quot;border-style:solid;&quot;&gt;&lt;p style=&quot;margin:0px;margin-left:4px;&quot;&gt;-Start() : void&lt;/p&gt;&lt;p style=&quot;margin:0px;margin-left:4px;&quot;&gt;-ValidateForm(string) : void&lt;/p&gt;" style="verticalAlign=top;align=left;overflow=fill;html=1;whiteSpace=wrap;" parent="1" vertex="1">
                    <mxGeometry x="1430" y="1880" width="320" height="280" as="geometry"/>
                </mxCell>
                <mxCell id="41" value="&lt;p style=&quot;margin:0px;margin-top:4px;text-align:center;&quot;&gt;&lt;b&gt;InputValidator&lt;/b&gt;&lt;/p&gt;&lt;hr size=&quot;1&quot; style=&quot;border-style:solid;&quot;&gt;&lt;p style=&quot;margin:0px;margin-left:4px;&quot;&gt;&lt;br&gt;&lt;/p&gt;&lt;hr size=&quot;1&quot; style=&quot;border-style:solid;&quot;&gt;&lt;p style=&quot;margin:0px;margin-left:4px;&quot;&gt;&lt;span style=&quot;background-color: transparent;&quot;&gt;+ IsFieldEmpty(string,TMP_Text, string) : bool&lt;/span&gt;&lt;/p&gt;&lt;p style=&quot;margin:0px;margin-left:4px;&quot;&gt;+ IsValidEmail(string, TMP_Text) : bool&lt;/p&gt;&lt;p style=&quot;margin:0px;margin-left:4px;&quot;&gt;+IsPasswordValid(String, TMP_Text) : bool&lt;/p&gt;&lt;p style=&quot;margin:0px;margin-left:4px;&quot;&gt;+ DoPasswordsMatch(string,string,TMP_Text) : bool&lt;/p&gt;" style="verticalAlign=top;align=left;overflow=fill;html=1;whiteSpace=wrap;" parent="1" vertex="1">
                    <mxGeometry x="1430" y="1650" width="320" height="120" as="geometry"/>
                </mxCell>
                <mxCell id="43" value="&lt;p style=&quot;margin:0px;margin-top:4px;text-align:center;&quot;&gt;&lt;b&gt;HandleCollideAudio&lt;/b&gt;&lt;/p&gt;&lt;hr size=&quot;1&quot; style=&quot;border-style:solid;&quot;&gt;&lt;p style=&quot;margin:0px;margin-left:4px;&quot;&gt;- _collisionLock: int&lt;/p&gt;&lt;p style=&quot;margin:0px;margin-left:4px;&quot;&gt;- _audioClip : AudioClip&lt;/p&gt;&lt;hr size=&quot;1&quot; style=&quot;border-style:solid;&quot;&gt;&lt;p style=&quot;margin:0px;margin-left:4px;&quot;&gt;- OnCollisionEnter2D(Collision 2D) : void&lt;/p&gt;" style="verticalAlign=top;align=left;overflow=fill;html=1;whiteSpace=wrap;" parent="1" vertex="1">
                    <mxGeometry x="1800" y="1720" width="320" height="100" as="geometry"/>
                </mxCell>
                <mxCell id="44" value="&lt;p style=&quot;margin:0px;margin-top:4px;text-align:center;&quot;&gt;&lt;b&gt;HandleCollision&lt;/b&gt;&lt;/p&gt;&lt;hr size=&quot;1&quot; style=&quot;border-style:solid;&quot;&gt;&lt;p style=&quot;margin:0px;margin-left:4px;&quot;&gt;- _collisionLock: int&lt;/p&gt;&lt;hr size=&quot;1&quot; style=&quot;border-style:solid;&quot;&gt;&lt;p style=&quot;margin:0px;margin-left:4px;&quot;&gt;- OnCollisionEnter2D(Collision 2D) : void&lt;/p&gt;" style="verticalAlign=top;align=left;overflow=fill;html=1;whiteSpace=wrap;" parent="1" vertex="1">
                    <mxGeometry x="2360" y="400" width="320" height="80" as="geometry"/>
                </mxCell>
                <mxCell id="45" value="&lt;p style=&quot;margin:0px;margin-top:4px;text-align:center;&quot;&gt;&lt;b&gt;HandleGameLogic&lt;/b&gt;&lt;/p&gt;&lt;hr size=&quot;1&quot; style=&quot;border-style:solid;&quot;&gt;&lt;p style=&quot;margin:0px;margin-left:4px;&quot;&gt;- _scoreText : TMP_Text&lt;/p&gt;&lt;p style=&quot;margin:0px;margin-left:4px;&quot;&gt;- _attempts: TMP_Text&lt;/p&gt;&lt;p style=&quot;margin:0px;margin-left:4px;&quot;&gt;- _levelText: TMP_Text&lt;/p&gt;&lt;p style=&quot;margin:0px;margin-left:4px;&quot;&gt;- _hearts[] : GameObject&lt;/p&gt;&lt;p style=&quot;margin:0px;margin-left:4px;&quot;&gt;&lt;span style=&quot;color: rgb(63, 63, 63);&quot;&gt;- _audiSource : AudioSource&lt;/span&gt;&lt;/p&gt;&lt;p style=&quot;margin:0px;margin-left:4px;&quot;&gt;- _audioClip : AudioClip&lt;/p&gt;&lt;p style=&quot;margin:0px;margin-left:4px;&quot;&gt;- _instance : HandleGameLogic&lt;/p&gt;&lt;p style=&quot;margin:0px;margin-left:4px;&quot;&gt;- _collisionCount : int&lt;/p&gt;&lt;p style=&quot;margin:0px;margin-left:4px;&quot;&gt;- _attemptsCount : int&lt;/p&gt;&lt;p style=&quot;margin:0px;margin-left:4px;&quot;&gt;- _score : int&lt;/p&gt;&lt;p style=&quot;margin:0px;margin-left:4px;&quot;&gt;- _gravityIncreased : float&lt;/p&gt;&lt;p style=&quot;margin:0px;margin-left:4px;&quot;&gt;- _level : int&lt;/p&gt;&lt;hr size=&quot;1&quot; style=&quot;border-style:solid;&quot;&gt;&lt;p style=&quot;margin:0px;margin-left:4px;&quot;&gt;-Awake() : void&lt;/p&gt;&lt;p style=&quot;margin:0px;margin-left:4px;&quot;&gt;-Update() : void&lt;/p&gt;&lt;p style=&quot;margin:0px;margin-left:4px;&quot;&gt;+RemoveHearts() : void&lt;/p&gt;&lt;p style=&quot;margin:0px;margin-left:4px;&quot;&gt;+SetScore() : void&lt;/p&gt;&lt;p style=&quot;margin:0px;margin-left:4px;&quot;&gt;- ResetValues() : void&lt;/p&gt;&lt;p style=&quot;margin:0px;margin-left:4px;&quot;&gt;+LevelUp() : float&lt;/p&gt;&lt;p style=&quot;margin:0px;margin-left:4px;&quot;&gt;-GameOver() : void&lt;/p&gt;&lt;p style=&quot;margin:0px;margin-left:4px;&quot;&gt;- DestroyObject : void&lt;/p&gt;" style="verticalAlign=top;align=left;overflow=fill;html=1;whiteSpace=wrap;" parent="1" vertex="1">
                    <mxGeometry x="1900" y="75" width="320" height="330" as="geometry"/>
                </mxCell>
                <mxCell id="46" value="&lt;p style=&quot;margin:0px;margin-top:4px;text-align:center;&quot;&gt;&lt;b&gt;HandleInput&lt;/b&gt;&lt;/p&gt;&lt;hr size=&quot;1&quot; style=&quot;border-style:solid;&quot;&gt;&lt;p style=&quot;margin:0px;margin-left:4px;&quot;&gt;- _generatedLetter : string&lt;/p&gt;&lt;p style=&quot;margin:0px;margin-left:4px;&quot;&gt;- _tmpText : TMP_Text&lt;/p&gt;&lt;hr size=&quot;1&quot; style=&quot;border-style:solid;&quot;&gt;&lt;p style=&quot;margin:0px;margin-left:4px;&quot;&gt;- Start() : void&lt;/p&gt;&lt;p style=&quot;margin:0px;margin-left:4px;&quot;&gt;- Update() : void&lt;/p&gt;" style="verticalAlign=top;align=left;overflow=fill;html=1;whiteSpace=wrap;" parent="1" vertex="1">
                    <mxGeometry x="2360" y="500" width="320" height="110" as="geometry"/>
                </mxCell>
                <mxCell id="47" value="&lt;p style=&quot;margin:0px;margin-top:4px;text-align:center;&quot;&gt;&lt;b&gt;HandleLevel&lt;/b&gt;&lt;/p&gt;&lt;hr size=&quot;1&quot; style=&quot;border-style:solid;&quot;&gt;&lt;p style=&quot;margin:0px;margin-left:4px;&quot;&gt;- _rigidbody2D : Rigidbody2D&lt;/p&gt;&lt;hr size=&quot;1&quot; style=&quot;border-style:solid;&quot;&gt;&lt;p style=&quot;margin:0px;margin-left:4px;&quot;&gt;- Start() : void&lt;/p&gt;" style="verticalAlign=top;align=left;overflow=fill;html=1;whiteSpace=wrap;" parent="1" vertex="1">
                    <mxGeometry x="2360" y="-90" width="320" height="80" as="geometry"/>
                </mxCell>
                <mxCell id="49" value="&lt;p style=&quot;margin:0px;margin-top:4px;text-align:center;&quot;&gt;&lt;b&gt;HandleDestroyComponent&lt;/b&gt;&lt;/p&gt;&lt;hr size=&quot;1&quot; style=&quot;border-style:solid;&quot;&gt;&lt;p style=&quot;margin:0px;margin-left:4px;&quot;&gt;- _destroyPoint : float&lt;/p&gt;&lt;hr size=&quot;1&quot; style=&quot;border-style:solid;&quot;&gt;&lt;p style=&quot;margin:0px;margin-left:4px;&quot;&gt;- Update() : void&lt;/p&gt;" style="verticalAlign=top;align=left;overflow=fill;html=1;whiteSpace=wrap;" parent="1" vertex="1">
                    <mxGeometry x="2130" y="1760" width="320" height="80" as="geometry"/>
                </mxCell>
                <mxCell id="51" value="&lt;p style=&quot;margin:0px;margin-top:4px;text-align:center;&quot;&gt;&lt;b&gt;HandleLeaderboardClick&lt;/b&gt;&lt;/p&gt;&lt;hr size=&quot;1&quot; style=&quot;border-style:solid;&quot;&gt;&lt;p style=&quot;margin:0px;margin-left:4px;&quot;&gt;&lt;br&gt;&lt;/p&gt;&lt;hr size=&quot;1&quot; style=&quot;border-style:solid;&quot;&gt;&lt;p style=&quot;margin:0px;margin-left:4px;&quot;&gt;+OnClick() : void&lt;/p&gt;" style="verticalAlign=top;align=left;overflow=fill;html=1;whiteSpace=wrap;" parent="1" vertex="1">
                    <mxGeometry x="2360" y="680" width="320" height="80" as="geometry"/>
                </mxCell>
                <mxCell id="52" value="&lt;p style=&quot;margin:0px;margin-top:4px;text-align:center;&quot;&gt;&lt;b&gt;HandleLogOutClick&lt;/b&gt;&lt;/p&gt;&lt;hr size=&quot;1&quot; style=&quot;border-style:solid;&quot;&gt;&lt;p style=&quot;margin:0px;margin-left:4px;&quot;&gt;&lt;br&gt;&lt;/p&gt;&lt;hr size=&quot;1&quot; style=&quot;border-style:solid;&quot;&gt;&lt;p style=&quot;margin:0px;margin-left:4px;&quot;&gt;+OnClick() : void&lt;/p&gt;" style="verticalAlign=top;align=left;overflow=fill;html=1;whiteSpace=wrap;" parent="1" vertex="1">
                    <mxGeometry x="1440" y="460" width="320" height="80" as="geometry"/>
                </mxCell>
                <mxCell id="53" value="&lt;p style=&quot;margin:0px;margin-top:4px;text-align:center;&quot;&gt;&lt;b&gt;HandleAssignLetters&lt;/b&gt;&lt;/p&gt;&lt;hr size=&quot;1&quot; style=&quot;border-style:solid;&quot;&gt;&lt;p style=&quot;margin:0px;margin-left:4px;&quot;&gt;- _letterText : TMP_text&lt;/p&gt;&lt;hr size=&quot;1&quot; style=&quot;border-style:solid;&quot;&gt;&lt;p style=&quot;margin:0px;margin-left:4px;&quot;&gt;- Start() : void&lt;/p&gt;&lt;p style=&quot;margin:0px;margin-left:4px;&quot;&gt;-GenerateRandomLetter() : char&lt;/p&gt;" style="verticalAlign=top;align=left;overflow=fill;html=1;whiteSpace=wrap;" parent="1" vertex="1">
                    <mxGeometry x="2130" y="1660" width="320" height="90" as="geometry"/>
                </mxCell>
                <mxCell id="54" value="&lt;p style=&quot;margin:0px;margin-top:4px;text-align:center;&quot;&gt;&lt;b&gt;HandleInstanceDestroy&lt;/b&gt;&lt;/p&gt;&lt;hr size=&quot;1&quot; style=&quot;border-style:solid;&quot;&gt;&lt;p style=&quot;margin:0px;margin-left:4px;&quot;&gt;&lt;br&gt;&lt;/p&gt;&lt;hr size=&quot;1&quot; style=&quot;border-style:solid;&quot;&gt;&lt;p style=&quot;margin:0px;margin-left:4px;&quot;&gt;- Start() : void&lt;/p&gt;" style="verticalAlign=top;align=left;overflow=fill;html=1;whiteSpace=wrap;" parent="1" vertex="1">
                    <mxGeometry x="2360" y="-190" width="320" height="80" as="geometry"/>
                </mxCell>
                <mxCell id="55" value="&lt;p style=&quot;margin:0px;margin-top:4px;text-align:center;&quot;&gt;&lt;b&gt;HandleInternetConnectivity&lt;/b&gt;&lt;/p&gt;&lt;hr size=&quot;1&quot; style=&quot;border-style:solid;&quot;&gt;&lt;p style=&quot;margin:0px;margin-left:4px;&quot;&gt;&lt;br&gt;&lt;/p&gt;&lt;hr size=&quot;1&quot; style=&quot;border-style:solid;&quot;&gt;&lt;p style=&quot;margin:0px;margin-left:4px;&quot;&gt;- Start() : void&lt;/p&gt;&lt;p style=&quot;margin:0px;margin-left:4px;&quot;&gt;-CheckInternetConnection() : void&lt;/p&gt;" style="verticalAlign=top;align=left;overflow=fill;html=1;whiteSpace=wrap;" parent="1" vertex="1">
                    <mxGeometry x="2130" y="1560" width="320" height="90" as="geometry"/>
                </mxCell>
                <mxCell id="56" value="&lt;p style=&quot;margin:0px;margin-top:4px;text-align:center;&quot;&gt;&lt;b&gt;HandleMainMenuClick&lt;/b&gt;&lt;/p&gt;&lt;hr size=&quot;1&quot; style=&quot;border-style:solid;&quot;&gt;&lt;p style=&quot;margin:0px;margin-left:4px;&quot;&gt;&lt;br&gt;&lt;/p&gt;&lt;hr size=&quot;1&quot; style=&quot;border-style:solid;&quot;&gt;&lt;p style=&quot;margin:0px;margin-left:4px;&quot;&gt;+ OnClick() : void&lt;/p&gt;" style="verticalAlign=top;align=left;overflow=fill;html=1;whiteSpace=wrap;" parent="1" vertex="1">
                    <mxGeometry x="2360" y="785" width="320" height="80" as="geometry"/>
                </mxCell>
                <mxCell id="57" value="&lt;p style=&quot;margin:0px;margin-top:4px;text-align:center;&quot;&gt;&lt;b&gt;HandleQuitGame&lt;/b&gt;&lt;/p&gt;&lt;hr size=&quot;1&quot; style=&quot;border-style:solid;&quot;&gt;&lt;p style=&quot;margin:0px;margin-left:4px;&quot;&gt;&lt;br&gt;&lt;/p&gt;&lt;hr size=&quot;1&quot; style=&quot;border-style:solid;&quot;&gt;&lt;p style=&quot;margin:0px;margin-left:4px;&quot;&gt;+ OnClick() : void&lt;/p&gt;" style="verticalAlign=top;align=left;overflow=fill;html=1;whiteSpace=wrap;" parent="1" vertex="1">
                    <mxGeometry x="2360" y="985" width="320" height="80" as="geometry"/>
                </mxCell>
                <mxCell id="58" value="&lt;p style=&quot;margin:0px;margin-top:4px;text-align:center;&quot;&gt;&lt;b&gt;HandleSession&lt;/b&gt;&lt;/p&gt;&lt;hr size=&quot;1&quot; style=&quot;border-style:solid;&quot;&gt;&lt;p style=&quot;margin:0px;margin-left:4px;&quot;&gt;&lt;br&gt;&lt;/p&gt;&lt;hr size=&quot;1&quot; style=&quot;border-style:solid;&quot;&gt;&lt;p style=&quot;margin:0px;margin-left:4px;&quot;&gt;- Update() : void&lt;/p&gt;" style="verticalAlign=top;align=left;overflow=fill;html=1;whiteSpace=wrap;" parent="1" vertex="1">
                    <mxGeometry x="1440" y="560" width="320" height="80" as="geometry"/>
                </mxCell>
                <mxCell id="59" value="&lt;p style=&quot;margin:0px;margin-top:4px;text-align:center;&quot;&gt;&lt;b&gt;HandleSpawning&lt;/b&gt;&lt;/p&gt;&lt;hr size=&quot;1&quot; style=&quot;border-style:solid;&quot;&gt;&lt;p style=&quot;margin:0px;margin-left:4px;&quot;&gt;- _key : GameObject&lt;/p&gt;&lt;p style=&quot;margin:0px;margin-left:4px;&quot;&gt;- _spawnPosition[] : Transform&lt;/p&gt;&lt;p style=&quot;margin:0px;margin-left:4px;&quot;&gt;- _startTime : float&lt;/p&gt;&lt;p style=&quot;margin:0px;margin-left:4px;&quot;&gt;- _timeBetween : float&lt;/p&gt;&lt;hr size=&quot;1&quot; style=&quot;border-style:solid;&quot;&gt;&lt;p style=&quot;margin:0px;margin-left:4px;&quot;&gt;- Update() : void&lt;/p&gt;&lt;p style=&quot;margin:0px;margin-left:4px;&quot;&gt;- Start() : void&lt;/p&gt;&lt;p style=&quot;margin:0px;margin-left:4px;&quot;&gt;- Spawn()&lt;/p&gt;" style="verticalAlign=top;align=left;overflow=fill;html=1;whiteSpace=wrap;" parent="1" vertex="1">
                    <mxGeometry x="1800" y="1560" width="320" height="150" as="geometry"/>
                </mxCell>
                <mxCell id="60" value="&lt;p style=&quot;margin:0px;margin-top:4px;text-align:center;&quot;&gt;&lt;b&gt;HandleStartGame&lt;/b&gt;&lt;/p&gt;&lt;hr size=&quot;1&quot; style=&quot;border-style:solid;&quot;&gt;&lt;p style=&quot;margin:0px;margin-left:4px;&quot;&gt;&lt;br&gt;&lt;/p&gt;&lt;hr size=&quot;1&quot; style=&quot;border-style:solid;&quot;&gt;&lt;p style=&quot;margin:0px;margin-left:4px;&quot;&gt;+ OnClick() : void&lt;/p&gt;" style="verticalAlign=top;align=left;overflow=fill;html=1;whiteSpace=wrap;" parent="1" vertex="1">
                    <mxGeometry x="2360" y="885" width="320" height="80" as="geometry"/>
                </mxCell>
                <mxCell id="61" value="&lt;p style=&quot;margin:0px;margin-top:4px;text-align:center;&quot;&gt;&lt;b&gt;HandleTokenExpiration&lt;/b&gt;&lt;/p&gt;&lt;hr size=&quot;1&quot; style=&quot;border-style:solid;&quot;&gt;&lt;p style=&quot;margin:0px;margin-left:4px;&quot;&gt;&lt;br&gt;&lt;/p&gt;&lt;hr size=&quot;1&quot; style=&quot;border-style:solid;&quot;&gt;&lt;p style=&quot;margin:0px;margin-left:4px;&quot;&gt;- Update() : void&lt;/p&gt;&lt;p style=&quot;margin:0px;margin-left:4px;&quot;&gt;- TokenTimer() : void&lt;/p&gt;" style="verticalAlign=top;align=left;overflow=fill;html=1;whiteSpace=wrap;" parent="1" vertex="1">
                    <mxGeometry x="1440" y="660" width="320" height="90" as="geometry"/>
                </mxCell>
                <mxCell id="62" value="&lt;p style=&quot;margin:0px;margin-top:4px;text-align:center;&quot;&gt;&lt;i&gt;&amp;lt;&amp;lt;Interface&amp;gt;&amp;gt;&lt;/i&gt;&lt;br&gt;&lt;b&gt;HandleResponse&lt;/b&gt;&lt;/p&gt;&lt;hr size=&quot;1&quot; style=&quot;border-style:solid;&quot;&gt;&lt;p style=&quot;margin:0px;margin-left:4px;&quot;&gt;&lt;br&gt;&lt;/p&gt;&lt;hr size=&quot;1&quot; style=&quot;border-style:solid;&quot;&gt;&lt;p style=&quot;margin:0px;margin-left:4px;&quot;&gt;+ NextAction(string): void&lt;br&gt;&lt;/p&gt;" style="verticalAlign=top;align=left;overflow=fill;html=1;whiteSpace=wrap;" parent="1" vertex="1">
                    <mxGeometry x="2025" y="1320" width="190" height="90" as="geometry"/>
                </mxCell>
                <mxCell id="63" value="&lt;p style=&quot;margin:0px;margin-top:4px;text-align:center;&quot;&gt;&lt;b&gt;DataBananaResponse&lt;/b&gt;&lt;/p&gt;&lt;hr size=&quot;1&quot; style=&quot;border-style:solid;&quot;&gt;&lt;p style=&quot;margin:0px;margin-left:4px;&quot;&gt;+ question : string&lt;/p&gt;&lt;p style=&quot;margin:0px;margin-left:4px;&quot;&gt;+ solution : int&lt;/p&gt;&lt;hr size=&quot;1&quot; style=&quot;border-style:solid;&quot;&gt;&lt;p style=&quot;margin:0px;margin-left:4px;&quot;&gt;&lt;br&gt;&lt;/p&gt;" style="verticalAlign=top;align=left;overflow=fill;html=1;whiteSpace=wrap;" parent="1" vertex="1">
                    <mxGeometry x="-60" y="190" width="320" height="90" as="geometry"/>
                </mxCell>
                <mxCell id="64" value="&lt;p style=&quot;margin:0px;margin-top:4px;text-align:center;&quot;&gt;&lt;b&gt;DataErrorResponse&lt;/b&gt;&lt;/p&gt;&lt;hr size=&quot;1&quot; style=&quot;border-style:solid;&quot;&gt;&lt;p style=&quot;margin:0px;margin-left:4px;&quot;&gt;+ detail: string&lt;/p&gt;&lt;hr size=&quot;1&quot; style=&quot;border-style:solid;&quot;&gt;&lt;p style=&quot;margin:0px;margin-left:4px;&quot;&gt;&lt;br&gt;&lt;/p&gt;" style="verticalAlign=top;align=left;overflow=fill;html=1;whiteSpace=wrap;" parent="1" vertex="1">
                    <mxGeometry x="-60" y="300" width="320" height="90" as="geometry"/>
                </mxCell>
                <mxCell id="66" value="&lt;p style=&quot;margin:0px;margin-top:4px;text-align:center;&quot;&gt;&lt;b&gt;DataForgetPassword&lt;/b&gt;&lt;/p&gt;&lt;hr size=&quot;1&quot; style=&quot;border-style:solid;&quot;&gt;&lt;p style=&quot;margin:0px;margin-left:4px;&quot;&gt;+ request_email : string&lt;/p&gt;&lt;hr size=&quot;1&quot; style=&quot;border-style:solid;&quot;&gt;&lt;p style=&quot;margin:0px;margin-left:4px;&quot;&gt;&lt;br&gt;&lt;/p&gt;" style="verticalAlign=top;align=left;overflow=fill;html=1;whiteSpace=wrap;" parent="1" vertex="1">
                    <mxGeometry x="-60" y="410" width="320" height="90" as="geometry"/>
                </mxCell>
                <mxCell id="67" value="&lt;p style=&quot;margin:0px;margin-top:4px;text-align:center;&quot;&gt;&lt;b&gt;DataGetUsers&lt;/b&gt;&lt;/p&gt;&lt;hr size=&quot;1&quot; style=&quot;border-style:solid;&quot;&gt;&lt;p style=&quot;margin:0px;margin-left:4px;&quot;&gt;+ username : string&lt;/p&gt;&lt;p style=&quot;margin:0px;margin-left:4px;&quot;&gt;+ score : int&lt;/p&gt;&lt;p style=&quot;margin:0px;margin-left:4px;&quot;&gt;+ isCurrentUser : bool&lt;/p&gt;&lt;hr size=&quot;1&quot; style=&quot;border-style:solid;&quot;&gt;&lt;p style=&quot;margin:0px;margin-left:4px;&quot;&gt;&lt;br&gt;&lt;/p&gt;" style="verticalAlign=top;align=left;overflow=fill;html=1;whiteSpace=wrap;" parent="1" vertex="1">
                    <mxGeometry x="-60" y="520" width="320" height="100" as="geometry"/>
                </mxCell>
                <mxCell id="68" value="&lt;p style=&quot;margin:0px;margin-top:4px;text-align:center;&quot;&gt;&lt;b&gt;DataLoginResponse&lt;/b&gt;&lt;/p&gt;&lt;hr size=&quot;1&quot; style=&quot;border-style:solid;&quot;&gt;&lt;p style=&quot;margin:0px;margin-left:4px;&quot;&gt;+ username : string&lt;/p&gt;&lt;p style=&quot;margin:0px;margin-left:4px;&quot;&gt;+ score : int&lt;/p&gt;&lt;p style=&quot;margin:0px;margin-left:4px;&quot;&gt;+ token : string&lt;/p&gt;&lt;p style=&quot;margin:0px;margin-left:4px;&quot;&gt;+ expire_time : long&lt;/p&gt;&lt;p style=&quot;margin:0px;margin-left:4px;&quot;&gt;+ server_response : string&lt;/p&gt;&lt;hr size=&quot;1&quot; style=&quot;border-style:solid;&quot;&gt;&lt;p style=&quot;margin:0px;margin-left:4px;&quot;&gt;&lt;br&gt;&lt;/p&gt;" style="verticalAlign=top;align=left;overflow=fill;html=1;whiteSpace=wrap;" parent="1" vertex="1">
                    <mxGeometry x="-60" y="640" width="320" height="130" as="geometry"/>
                </mxCell>
                <mxCell id="70" value="&lt;p style=&quot;margin:0px;margin-top:4px;text-align:center;&quot;&gt;&lt;b&gt;DataLoginUser&lt;/b&gt;&lt;/p&gt;&lt;hr size=&quot;1&quot; style=&quot;border-style:solid;&quot;&gt;&lt;p style=&quot;margin:0px;margin-left:4px;&quot;&gt;+ email : string&lt;/p&gt;&lt;p style=&quot;margin:0px;margin-left:4px;&quot;&gt;+ password : string&lt;/p&gt;&lt;hr size=&quot;1&quot; style=&quot;border-style:solid;&quot;&gt;&lt;p style=&quot;margin:0px;margin-left:4px;&quot;&gt;&lt;br&gt;&lt;/p&gt;" style="verticalAlign=top;align=left;overflow=fill;html=1;whiteSpace=wrap;" parent="1" vertex="1">
                    <mxGeometry x="-60" y="790" width="320" height="90" as="geometry"/>
                </mxCell>
                <mxCell id="71" value="&lt;p style=&quot;margin:0px;margin-top:4px;text-align:center;&quot;&gt;&lt;b&gt;DataRegisterResponse&lt;/b&gt;&lt;/p&gt;&lt;hr size=&quot;1&quot; style=&quot;border-style:solid;&quot;&gt;&lt;p style=&quot;margin:0px;margin-left:4px;&quot;&gt;+ token : string&lt;/p&gt;&lt;p style=&quot;margin:0px;margin-left:4px;&quot;&gt;+ expire_time : long&amp;nbsp;&lt;/p&gt;&lt;p style=&quot;margin:0px;margin-left:4px;&quot;&gt;+ server_response : string&lt;/p&gt;&lt;hr size=&quot;1&quot; style=&quot;border-style:solid;&quot;&gt;&lt;p style=&quot;margin:0px;margin-left:4px;&quot;&gt;&lt;br&gt;&lt;/p&gt;" style="verticalAlign=top;align=left;overflow=fill;html=1;whiteSpace=wrap;" parent="1" vertex="1">
                    <mxGeometry x="-60" y="900" width="320" height="100" as="geometry"/>
                </mxCell>
                <mxCell id="72" value="&lt;p style=&quot;margin:0px;margin-top:4px;text-align:center;&quot;&gt;&lt;b&gt;DataRegisterUser&lt;/b&gt;&lt;/p&gt;&lt;hr size=&quot;1&quot; style=&quot;border-style:solid;&quot;&gt;&lt;p style=&quot;margin:0px;margin-left:4px;&quot;&gt;+ email: string&lt;/p&gt;&lt;p style=&quot;margin:0px;margin-left:4px;&quot;&gt;+ password : string&lt;/p&gt;&lt;p style=&quot;margin:0px;margin-left:4px;&quot;&gt;+ username: string&lt;/p&gt;&lt;hr size=&quot;1&quot; style=&quot;border-style:solid;&quot;&gt;&lt;p style=&quot;margin:0px;margin-left:4px;&quot;&gt;&lt;br&gt;&lt;/p&gt;" style="verticalAlign=top;align=left;overflow=fill;html=1;whiteSpace=wrap;" parent="1" vertex="1">
                    <mxGeometry x="-60" y="1020" width="320" height="100" as="geometry"/>
                </mxCell>
                <mxCell id="73" value="&lt;p style=&quot;margin:0px;margin-top:4px;text-align:center;&quot;&gt;&lt;b&gt;DataUpdateScore&lt;/b&gt;&lt;/p&gt;&lt;hr size=&quot;1&quot; style=&quot;border-style:solid;&quot;&gt;&lt;p style=&quot;margin:0px;margin-left:4px;&quot;&gt;+ score : int&lt;/p&gt;&lt;hr size=&quot;1&quot; style=&quot;border-style:solid;&quot;&gt;&lt;p style=&quot;margin:0px;margin-left:4px;&quot;&gt;&lt;br&gt;&lt;/p&gt;" style="verticalAlign=top;align=left;overflow=fill;html=1;whiteSpace=wrap;" parent="1" vertex="1">
                    <mxGeometry x="-60" y="1140" width="320" height="70" as="geometry"/>
                </mxCell>
                <mxCell id="127" value="&lt;p style=&quot;margin:0px;margin-top:4px;text-align:center;&quot;&gt;&lt;b&gt;HandleCollision&lt;/b&gt;&lt;/p&gt;&lt;hr size=&quot;1&quot; style=&quot;border-style:solid;&quot;&gt;&lt;p style=&quot;margin:0px;margin-left:4px;&quot;&gt;- _collisionLock: int&lt;/p&gt;&lt;hr size=&quot;1&quot; style=&quot;border-style:solid;&quot;&gt;&lt;p style=&quot;margin:0px;margin-left:4px;&quot;&gt;- OnCollisionEnter2D(Collision 2D) : void&lt;/p&gt;" style="verticalAlign=top;align=left;overflow=fill;html=1;whiteSpace=wrap;" parent="1" vertex="1">
                    <mxGeometry x="2360" y="200" width="320" height="80" as="geometry"/>
                </mxCell>
                <mxCell id="128" value="&lt;p style=&quot;margin:0px;margin-top:4px;text-align:center;&quot;&gt;&lt;b&gt;HandleCollision&lt;/b&gt;&lt;/p&gt;&lt;hr size=&quot;1&quot; style=&quot;border-style:solid;&quot;&gt;&lt;p style=&quot;margin:0px;margin-left:4px;&quot;&gt;- _collisionLock: int&lt;/p&gt;&lt;hr size=&quot;1&quot; style=&quot;border-style:solid;&quot;&gt;&lt;p style=&quot;margin:0px;margin-left:4px;&quot;&gt;- OnCollisionEnter2D(Collision 2D) : void&lt;/p&gt;" style="verticalAlign=top;align=left;overflow=fill;html=1;whiteSpace=wrap;" parent="1" vertex="1">
                    <mxGeometry x="2360" y="300" width="320" height="80" as="geometry"/>
                </mxCell>
                <mxCell id="140" value="&lt;p style=&quot;margin:0px;margin-top:4px;text-align:center;&quot;&gt;&lt;b&gt;HandlePanelTransition&lt;/b&gt;&lt;/p&gt;&lt;hr size=&quot;1&quot; style=&quot;border-style:solid;&quot;&gt;&lt;p style=&quot;margin:0px;margin-left:4px;&quot;&gt;- _canvas : Transform&lt;/p&gt;&lt;p style=&quot;margin:0px;margin-left:4px;&quot;&gt;- _activepanel: TMP_InputField&lt;/p&gt;&lt;p style=&quot;margin:0px;margin-left:4px;&quot;&gt;- _spawnPoint : Transform&lt;/p&gt;&lt;p style=&quot;margin:0px;margin-left:4px;&quot;&gt;- _loginPage : GameObject&lt;/p&gt;&lt;p style=&quot;margin:0px;margin-left:4px;&quot;&gt;- _instance : HandlePanelTransition&lt;/p&gt;&lt;hr size=&quot;1&quot; style=&quot;border-style:solid;&quot;&gt;&lt;p style=&quot;margin:0px;margin-left:4px;&quot;&gt;- Start() : void&lt;/p&gt;&lt;p style=&quot;margin:0px;margin-left:4px;&quot;&gt;+ SpawnPanel(GameObject) : void&lt;/p&gt;" style="verticalAlign=top;align=left;overflow=fill;html=1;whiteSpace=wrap;" parent="1" vertex="1">
                    <mxGeometry x="1960" y="1125" width="320" height="150" as="geometry"/>
                </mxCell>
                <mxCell id="ER9CD2LJtz95JqeX7eWr-158" value="" style="endArrow=block;dashed=1;endFill=0;endSize=12;html=1;entryX=1;entryY=0.5;entryDx=0;entryDy=0;exitX=0;exitY=0.5;exitDx=0;exitDy=0;" parent="1" source="37" target="9" edge="1">
                    <mxGeometry width="160" relative="1" as="geometry">
                        <mxPoint x="2170" y="720" as="sourcePoint"/>
                        <mxPoint x="2330" y="720" as="targetPoint"/>
                    </mxGeometry>
                </mxCell>
                <mxCell id="ER9CD2LJtz95JqeX7eWr-159" value="" style="endArrow=block;dashed=1;endFill=0;endSize=12;html=1;entryX=1;entryY=0.5;entryDx=0;entryDy=0;exitX=0;exitY=0.5;exitDx=0;exitDy=0;" parent="1" source="56" target="9" edge="1">
                    <mxGeometry width="160" relative="1" as="geometry">
                        <mxPoint x="2370" y="735" as="sourcePoint"/>
                        <mxPoint x="2200" y="935" as="targetPoint"/>
                    </mxGeometry>
                </mxCell>
                <mxCell id="ER9CD2LJtz95JqeX7eWr-160" value="" style="endArrow=block;dashed=1;endFill=0;endSize=12;html=1;exitX=0;exitY=0.5;exitDx=0;exitDy=0;entryX=1;entryY=0.5;entryDx=0;entryDy=0;" parent="1" source="60" target="9" edge="1">
                    <mxGeometry width="160" relative="1" as="geometry">
                        <mxPoint x="2410" y="780" as="sourcePoint"/>
                        <mxPoint x="2220" y="965" as="targetPoint"/>
                    </mxGeometry>
                </mxCell>
                <mxCell id="ER9CD2LJtz95JqeX7eWr-161" value="" style="endArrow=block;dashed=1;endFill=0;endSize=12;html=1;entryX=1;entryY=0.5;entryDx=0;entryDy=0;exitX=0;exitY=0.5;exitDx=0;exitDy=0;" parent="1" source="57" target="9" edge="1">
                    <mxGeometry width="160" relative="1" as="geometry">
                        <mxPoint x="2390" y="755" as="sourcePoint"/>
                        <mxPoint x="2220" y="955" as="targetPoint"/>
                    </mxGeometry>
                </mxCell>
                <mxCell id="ER9CD2LJtz95JqeX7eWr-162" value="" style="endArrow=block;dashed=1;endFill=0;endSize=12;html=1;entryX=1;entryY=0.5;entryDx=0;entryDy=0;exitX=0;exitY=0.5;exitDx=0;exitDy=0;" parent="1" source="51" target="9" edge="1">
                    <mxGeometry width="160" relative="1" as="geometry">
                        <mxPoint x="2400" y="765" as="sourcePoint"/>
                        <mxPoint x="2230" y="965" as="targetPoint"/>
                    </mxGeometry>
                </mxCell>
                <mxCell id="ER9CD2LJtz95JqeX7eWr-163" value="" style="endArrow=block;dashed=1;endFill=0;endSize=12;html=1;entryX=0;entryY=0.5;entryDx=0;entryDy=0;exitX=1;exitY=0.5;exitDx=0;exitDy=0;" parent="1" source="26" target="9" edge="1">
                    <mxGeometry width="160" relative="1" as="geometry">
                        <mxPoint x="2410" y="775" as="sourcePoint"/>
                        <mxPoint x="2240" y="975" as="targetPoint"/>
                    </mxGeometry>
                </mxCell>
                <mxCell id="ER9CD2LJtz95JqeX7eWr-164" value="" style="endArrow=block;dashed=1;endFill=0;endSize=12;html=1;entryX=0;entryY=0.5;entryDx=0;entryDy=0;exitX=1;exitY=0.5;exitDx=0;exitDy=0;" parent="1" source="52" target="9" edge="1">
                    <mxGeometry width="160" relative="1" as="geometry">
                        <mxPoint x="2420" y="785" as="sourcePoint"/>
                        <mxPoint x="2250" y="985" as="targetPoint"/>
                    </mxGeometry>
                </mxCell>
                <mxCell id="ER9CD2LJtz95JqeX7eWr-165" value="" style="endArrow=block;dashed=1;endFill=0;endSize=12;html=1;entryX=0;entryY=0.5;entryDx=0;entryDy=0;exitX=1;exitY=0.5;exitDx=0;exitDy=0;" parent="1" source="21" target="9" edge="1">
                    <mxGeometry width="160" relative="1" as="geometry">
                        <mxPoint x="2430" y="795" as="sourcePoint"/>
                        <mxPoint x="2260" y="995" as="targetPoint"/>
                    </mxGeometry>
                </mxCell>
                <mxCell id="ER9CD2LJtz95JqeX7eWr-166" value="" style="endArrow=block;dashed=1;endFill=0;endSize=12;html=1;entryX=0;entryY=0.5;entryDx=0;entryDy=0;exitX=1;exitY=0.5;exitDx=0;exitDy=0;" parent="1" source="31" target="9" edge="1">
                    <mxGeometry width="160" relative="1" as="geometry">
                        <mxPoint x="2440" y="805" as="sourcePoint"/>
                        <mxPoint x="2270" y="1005" as="targetPoint"/>
                    </mxGeometry>
                </mxCell>
                <mxCell id="ER9CD2LJtz95JqeX7eWr-167" value="" style="endArrow=block;dashed=1;endFill=0;endSize=12;html=1;entryX=0;entryY=0.5;entryDx=0;entryDy=0;exitX=1;exitY=0.5;exitDx=0;exitDy=0;" parent="1" source="33" target="9" edge="1">
                    <mxGeometry width="160" relative="1" as="geometry">
                        <mxPoint x="2450" y="815" as="sourcePoint"/>
                        <mxPoint x="2280" y="1015" as="targetPoint"/>
                    </mxGeometry>
                </mxCell>
                <mxCell id="ER9CD2LJtz95JqeX7eWr-168" value="" style="endArrow=block;dashed=1;endFill=0;endSize=12;html=1;entryX=0;entryY=0.5;entryDx=0;entryDy=0;exitX=0.996;exitY=0.567;exitDx=0;exitDy=0;exitPerimeter=0;" parent="1" source="39" target="9" edge="1">
                    <mxGeometry width="160" relative="1" as="geometry">
                        <mxPoint x="2460" y="825" as="sourcePoint"/>
                        <mxPoint x="2290" y="1025" as="targetPoint"/>
                    </mxGeometry>
                </mxCell>
                <mxCell id="ER9CD2LJtz95JqeX7eWr-169" value="" style="endArrow=block;dashed=1;endFill=0;endSize=12;html=1;entryX=0;entryY=0.5;entryDx=0;entryDy=0;exitX=1;exitY=0.542;exitDx=0;exitDy=0;exitPerimeter=0;" parent="1" source="39" target="62" edge="1">
                    <mxGeometry width="160" relative="1" as="geometry">
                        <mxPoint x="1769" y="1711" as="sourcePoint"/>
                        <mxPoint x="2010" y="935" as="targetPoint"/>
                    </mxGeometry>
                </mxCell>
                <mxCell id="ER9CD2LJtz95JqeX7eWr-170" value="" style="endArrow=block;dashed=1;endFill=0;endSize=12;html=1;entryX=0;entryY=0.5;entryDx=0;entryDy=0;exitX=1;exitY=0.5;exitDx=0;exitDy=0;" parent="1" source="33" target="62" edge="1">
                    <mxGeometry width="160" relative="1" as="geometry">
                        <mxPoint x="1779" y="1721" as="sourcePoint"/>
                        <mxPoint x="2020" y="945" as="targetPoint"/>
                    </mxGeometry>
                </mxCell>
                <mxCell id="ER9CD2LJtz95JqeX7eWr-171" value="" style="endArrow=block;dashed=1;endFill=0;endSize=12;html=1;entryX=0;entryY=0.5;entryDx=0;entryDy=0;exitX=1;exitY=0.5;exitDx=0;exitDy=0;" parent="1" source="31" target="62" edge="1">
                    <mxGeometry width="160" relative="1" as="geometry">
                        <mxPoint x="1789" y="1731" as="sourcePoint"/>
                        <mxPoint x="2030" y="955" as="targetPoint"/>
                    </mxGeometry>
                </mxCell>
                <mxCell id="ER9CD2LJtz95JqeX7eWr-172" value="" style="endArrow=open;endFill=1;endSize=12;html=1;exitX=1;exitY=0.5;exitDx=0;exitDy=0;entryX=0;entryY=0.5;entryDx=0;entryDy=0;" parent="1" source="21" target="45" edge="1">
                    <mxGeometry width="160" relative="1" as="geometry">
                        <mxPoint x="1800" y="340" as="sourcePoint"/>
                        <mxPoint x="1960" y="340" as="targetPoint"/>
                    </mxGeometry>
                </mxCell>
                <mxCell id="ER9CD2LJtz95JqeX7eWr-173" value="" style="endArrow=open;endFill=1;endSize=12;html=1;exitX=0;exitY=0.5;exitDx=0;exitDy=0;entryX=1;entryY=0.5;entryDx=0;entryDy=0;" parent="1" source="54" target="45" edge="1">
                    <mxGeometry width="160" relative="1" as="geometry">
                        <mxPoint x="1770" y="250" as="sourcePoint"/>
                        <mxPoint x="1910" y="250" as="targetPoint"/>
                    </mxGeometry>
                </mxCell>
                <mxCell id="ER9CD2LJtz95JqeX7eWr-174" value="" style="endArrow=open;endFill=1;endSize=12;html=1;exitX=0;exitY=0.5;exitDx=0;exitDy=0;entryX=1;entryY=0.5;entryDx=0;entryDy=0;" parent="1" source="47" target="45" edge="1">
                    <mxGeometry width="160" relative="1" as="geometry">
                        <mxPoint x="1780" y="260" as="sourcePoint"/>
                        <mxPoint x="1920" y="260" as="targetPoint"/>
                    </mxGeometry>
                </mxCell>
                <mxCell id="ER9CD2LJtz95JqeX7eWr-175" value="" style="endArrow=open;endFill=1;endSize=12;html=1;exitX=0;exitY=0.5;exitDx=0;exitDy=0;entryX=1;entryY=0.5;entryDx=0;entryDy=0;" parent="1" source="22" target="45" edge="1">
                    <mxGeometry width="160" relative="1" as="geometry">
                        <mxPoint x="2370" y="-40" as="sourcePoint"/>
                        <mxPoint x="2230" y="250" as="targetPoint"/>
                    </mxGeometry>
                </mxCell>
                <mxCell id="ER9CD2LJtz95JqeX7eWr-176" value="" style="endArrow=open;endFill=1;endSize=12;html=1;exitX=0;exitY=0.5;exitDx=0;exitDy=0;entryX=1;entryY=0.5;entryDx=0;entryDy=0;" parent="1" source="127" target="45" edge="1">
                    <mxGeometry width="160" relative="1" as="geometry">
                        <mxPoint x="2370" y="105" as="sourcePoint"/>
                        <mxPoint x="2230" y="250" as="targetPoint"/>
                    </mxGeometry>
                </mxCell>
                <mxCell id="ER9CD2LJtz95JqeX7eWr-177" value="" style="endArrow=open;endFill=1;endSize=12;html=1;exitX=0;exitY=0.5;exitDx=0;exitDy=0;entryX=1;entryY=0.5;entryDx=0;entryDy=0;" parent="1" source="128" target="45" edge="1">
                    <mxGeometry width="160" relative="1" as="geometry">
                        <mxPoint x="2380" y="115" as="sourcePoint"/>
                        <mxPoint x="2240" y="260" as="targetPoint"/>
                    </mxGeometry>
                </mxCell>
                <mxCell id="ER9CD2LJtz95JqeX7eWr-178" value="" style="endArrow=open;endFill=1;endSize=12;html=1;exitX=0;exitY=0.5;exitDx=0;exitDy=0;entryX=1;entryY=0.5;entryDx=0;entryDy=0;" parent="1" source="44" target="45" edge="1">
                    <mxGeometry width="160" relative="1" as="geometry">
                        <mxPoint x="2390" y="125" as="sourcePoint"/>
                        <mxPoint x="2250" y="270" as="targetPoint"/>
                    </mxGeometry>
                </mxCell>
                <mxCell id="ER9CD2LJtz95JqeX7eWr-179" value="" style="endArrow=open;endFill=1;endSize=12;html=1;exitX=0;exitY=0.5;exitDx=0;exitDy=0;entryX=1;entryY=0.5;entryDx=0;entryDy=0;" parent="1" source="21" target="15" edge="1">
                    <mxGeometry width="160" relative="1" as="geometry">
                        <mxPoint x="1070" y="160" as="sourcePoint"/>
                        <mxPoint x="1210" y="160" as="targetPoint"/>
                    </mxGeometry>
                </mxCell>
                <mxCell id="ER9CD2LJtz95JqeX7eWr-181" value="" style="endArrow=open;endFill=1;endSize=12;html=1;exitX=0;exitY=0.5;exitDx=0;exitDy=0;entryX=1;entryY=0.5;entryDx=0;entryDy=0;" parent="1" source="26" target="18" edge="1">
                    <mxGeometry width="160" relative="1" as="geometry">
                        <mxPoint x="1450" y="250" as="sourcePoint"/>
                        <mxPoint x="1090" y="250" as="targetPoint"/>
                    </mxGeometry>
                </mxCell>
                <mxCell id="ER9CD2LJtz95JqeX7eWr-182" value="" style="endArrow=open;endFill=1;endSize=12;html=1;exitX=0;exitY=0.5;exitDx=0;exitDy=0;entryX=1;entryY=0.5;entryDx=0;entryDy=0;" parent="1" source="52" target="18" edge="1">
                    <mxGeometry width="160" relative="1" as="geometry">
                        <mxPoint x="1450" y="410" as="sourcePoint"/>
                        <mxPoint x="1090" y="540" as="targetPoint"/>
                    </mxGeometry>
                </mxCell>
                <mxCell id="ER9CD2LJtz95JqeX7eWr-183" value="" style="endArrow=open;endFill=1;endSize=12;html=1;exitX=0;exitY=0.5;exitDx=0;exitDy=0;entryX=1;entryY=0.5;entryDx=0;entryDy=0;" parent="1" source="58" target="18" edge="1">
                    <mxGeometry width="160" relative="1" as="geometry">
                        <mxPoint x="1460" y="420" as="sourcePoint"/>
                        <mxPoint x="1100" y="550" as="targetPoint"/>
                    </mxGeometry>
                </mxCell>
                <mxCell id="ER9CD2LJtz95JqeX7eWr-184" value="" style="endArrow=open;endFill=1;endSize=12;html=1;exitX=0;exitY=0.5;exitDx=0;exitDy=0;entryX=1;entryY=0.5;entryDx=0;entryDy=0;" parent="1" source="61" target="18" edge="1">
                    <mxGeometry width="160" relative="1" as="geometry">
                        <mxPoint x="1470" y="430" as="sourcePoint"/>
                        <mxPoint x="1110" y="560" as="targetPoint"/>
                    </mxGeometry>
                </mxCell>
                <mxCell id="ER9CD2LJtz95JqeX7eWr-185" value="" style="endArrow=open;endFill=1;endSize=12;html=1;exitX=0;exitY=0.5;exitDx=0;exitDy=0;entryX=1;entryY=0.5;entryDx=0;entryDy=0;" parent="1" source="25" target="18" edge="1">
                    <mxGeometry width="160" relative="1" as="geometry">
                        <mxPoint x="1450" y="715" as="sourcePoint"/>
                        <mxPoint x="1090" y="540" as="targetPoint"/>
                    </mxGeometry>
                </mxCell>
                <mxCell id="ER9CD2LJtz95JqeX7eWr-186" value="" style="endArrow=open;endFill=1;endSize=12;html=1;exitX=0;exitY=0.5;exitDx=0;exitDy=0;entryX=1;entryY=0.5;entryDx=0;entryDy=0;" parent="1" source="25" target="17" edge="1">
                    <mxGeometry width="160" relative="1" as="geometry">
                        <mxPoint x="1450" y="870" as="sourcePoint"/>
                        <mxPoint x="1090" y="540" as="targetPoint"/>
                    </mxGeometry>
                </mxCell>
                <mxCell id="ER9CD2LJtz95JqeX7eWr-187" value="" style="endArrow=open;endFill=1;endSize=12;html=1;exitX=0;exitY=0.5;exitDx=0;exitDy=0;entryX=1;entryY=0.5;entryDx=0;entryDy=0;" parent="1" source="28" target="17" edge="1">
                    <mxGeometry width="160" relative="1" as="geometry">
                        <mxPoint x="1460" y="880" as="sourcePoint"/>
                        <mxPoint x="1100" y="550" as="targetPoint"/>
                    </mxGeometry>
                </mxCell>
                <mxCell id="ER9CD2LJtz95JqeX7eWr-188" value="" style="endArrow=open;endFill=1;endSize=12;html=1;exitX=0;exitY=0.5;exitDx=0;exitDy=0;entryX=1;entryY=0.5;entryDx=0;entryDy=0;" parent="1" source="31" target="17" edge="1">
                    <mxGeometry width="160" relative="1" as="geometry">
                        <mxPoint x="1470" y="890" as="sourcePoint"/>
                        <mxPoint x="1110" y="560" as="targetPoint"/>
                    </mxGeometry>
                </mxCell>
                <mxCell id="ER9CD2LJtz95JqeX7eWr-190" value="" style="endArrow=open;endFill=1;endSize=12;html=1;exitX=0;exitY=0.5;exitDx=0;exitDy=0;entryX=1;entryY=0.5;entryDx=0;entryDy=0;" parent="1" source="33" target="17" edge="1">
                    <mxGeometry width="160" relative="1" as="geometry">
                        <mxPoint x="1450" y="1350" as="sourcePoint"/>
                        <mxPoint x="1090" y="870" as="targetPoint"/>
                    </mxGeometry>
                </mxCell>
                <mxCell id="ER9CD2LJtz95JqeX7eWr-191" value="" style="endArrow=open;endFill=1;endSize=12;html=1;exitX=0;exitY=0.5;exitDx=0;exitDy=0;entryX=1;entryY=0.5;entryDx=0;entryDy=0;" parent="1" source="39" target="17" edge="1">
                    <mxGeometry width="160" relative="1" as="geometry">
                        <mxPoint x="1460" y="1360" as="sourcePoint"/>
                        <mxPoint x="1100" y="880" as="targetPoint"/>
                    </mxGeometry>
                </mxCell>
                <mxCell id="ER9CD2LJtz95JqeX7eWr-192" value="" style="endArrow=open;endFill=1;endSize=12;html=1;exitX=0.5;exitY=0;exitDx=0;exitDy=0;entryX=0.5;entryY=1;entryDx=0;entryDy=0;" parent="1" source="17" target="18" edge="1">
                    <mxGeometry width="160" relative="1" as="geometry">
                        <mxPoint x="1580" y="870" as="sourcePoint"/>
                        <mxPoint x="1220" y="540" as="targetPoint"/>
                    </mxGeometry>
                </mxCell>
                <mxCell id="ER9CD2LJtz95JqeX7eWr-194" value="" style="endArrow=open;endFill=1;endSize=12;html=1;exitX=0;exitY=0.5;exitDx=0;exitDy=0;entryX=1;entryY=0.5;entryDx=0;entryDy=0;" parent="1" source="18" target="14" edge="1">
                    <mxGeometry width="160" relative="1" as="geometry">
                        <mxPoint x="1070" y="800" as="sourcePoint"/>
                        <mxPoint x="1070" y="610" as="targetPoint"/>
                    </mxGeometry>
                </mxCell>
                <mxCell id="ER9CD2LJtz95JqeX7eWr-195" value="" style="endArrow=open;endFill=1;endSize=12;html=1;exitX=0;exitY=0.5;exitDx=0;exitDy=0;entryX=1;entryY=0.5;entryDx=0;entryDy=0;" parent="1" source="17" target="13" edge="1">
                    <mxGeometry width="160" relative="1" as="geometry">
                        <mxPoint x="1080" y="810" as="sourcePoint"/>
                        <mxPoint x="1080" y="620" as="targetPoint"/>
                    </mxGeometry>
                </mxCell>
                <mxCell id="ER9CD2LJtz95JqeX7eWr-196" value="" style="endArrow=open;endFill=1;endSize=12;html=1;exitX=0;exitY=0.5;exitDx=0;exitDy=0;entryX=1;entryY=0.5;entryDx=0;entryDy=0;" parent="1" source="15" target="11" edge="1">
                    <mxGeometry width="160" relative="1" as="geometry">
                        <mxPoint x="1090" y="820" as="sourcePoint"/>
                        <mxPoint x="1090" y="630" as="targetPoint"/>
                    </mxGeometry>
                </mxCell>
                <mxCell id="ER9CD2LJtz95JqeX7eWr-197" value="" style="endArrow=open;endFill=1;endSize=12;html=1;exitX=0;exitY=0.5;exitDx=0;exitDy=0;entryX=1;entryY=0.5;entryDx=0;entryDy=0;" parent="1" source="11" target="63" edge="1">
                    <mxGeometry width="160" relative="1" as="geometry">
                        <mxPoint x="670" y="360" as="sourcePoint"/>
                        <mxPoint x="350" y="360" as="targetPoint"/>
                    </mxGeometry>
                </mxCell>
                <mxCell id="ER9CD2LJtz95JqeX7eWr-198" value="" style="endArrow=open;endFill=1;endSize=12;html=1;exitX=0;exitY=0.5;exitDx=0;exitDy=0;entryX=1;entryY=0.5;entryDx=0;entryDy=0;" parent="1" source="13" target="64" edge="1">
                    <mxGeometry width="160" relative="1" as="geometry">
                        <mxPoint x="480" y="250" as="sourcePoint"/>
                        <mxPoint x="55" y="245" as="targetPoint"/>
                    </mxGeometry>
                </mxCell>
                <mxCell id="ER9CD2LJtz95JqeX7eWr-200" value="" style="endArrow=open;endFill=1;endSize=12;html=1;exitX=0;exitY=0.5;exitDx=0;exitDy=0;entryX=1;entryY=0.5;entryDx=0;entryDy=0;" parent="1" source="13" target="66" edge="1">
                    <mxGeometry width="160" relative="1" as="geometry">
                        <mxPoint x="480" y="870" as="sourcePoint"/>
                        <mxPoint x="55" y="465" as="targetPoint"/>
                    </mxGeometry>
                </mxCell>
                <mxCell id="ER9CD2LJtz95JqeX7eWr-201" value="" style="endArrow=open;endFill=1;endSize=12;html=1;exitX=0;exitY=0.5;exitDx=0;exitDy=0;entryX=1;entryY=0.5;entryDx=0;entryDy=0;" parent="1" source="13" target="67" edge="1">
                    <mxGeometry width="160" relative="1" as="geometry">
                        <mxPoint x="490" y="880" as="sourcePoint"/>
                        <mxPoint x="65" y="475" as="targetPoint"/>
                    </mxGeometry>
                </mxCell>
                <mxCell id="ER9CD2LJtz95JqeX7eWr-202" value="" style="endArrow=open;endFill=1;endSize=12;html=1;exitX=0;exitY=0.5;exitDx=0;exitDy=0;entryX=1;entryY=0.5;entryDx=0;entryDy=0;" parent="1" source="13" target="68" edge="1">
                    <mxGeometry width="160" relative="1" as="geometry">
                        <mxPoint x="500" y="890" as="sourcePoint"/>
                        <mxPoint x="75" y="485" as="targetPoint"/>
                    </mxGeometry>
                </mxCell>
                <mxCell id="ER9CD2LJtz95JqeX7eWr-204" value="" style="endArrow=open;endFill=1;endSize=12;html=1;exitX=0;exitY=0.5;exitDx=0;exitDy=0;entryX=1;entryY=0.5;entryDx=0;entryDy=0;" parent="1" source="13" target="70" edge="1">
                    <mxGeometry width="160" relative="1" as="geometry">
                        <mxPoint x="490" y="880" as="sourcePoint"/>
                        <mxPoint x="65" y="835" as="targetPoint"/>
                    </mxGeometry>
                </mxCell>
                <mxCell id="ER9CD2LJtz95JqeX7eWr-205" value="" style="endArrow=open;endFill=1;endSize=12;html=1;exitX=0;exitY=0.5;exitDx=0;exitDy=0;entryX=1;entryY=0.5;entryDx=0;entryDy=0;" parent="1" source="13" target="71" edge="1">
                    <mxGeometry width="160" relative="1" as="geometry">
                        <mxPoint x="500" y="890" as="sourcePoint"/>
                        <mxPoint x="75" y="845" as="targetPoint"/>
                    </mxGeometry>
                </mxCell>
                <mxCell id="ER9CD2LJtz95JqeX7eWr-206" value="" style="endArrow=open;endFill=1;endSize=12;html=1;exitX=0;exitY=0.5;exitDx=0;exitDy=0;entryX=1;entryY=0.5;entryDx=0;entryDy=0;" parent="1" source="13" target="72" edge="1">
                    <mxGeometry width="160" relative="1" as="geometry">
                        <mxPoint x="510" y="900" as="sourcePoint"/>
                        <mxPoint x="85" y="855" as="targetPoint"/>
                    </mxGeometry>
                </mxCell>
                <mxCell id="ER9CD2LJtz95JqeX7eWr-207" value="" style="endArrow=open;endFill=1;endSize=12;html=1;exitX=0;exitY=0.5;exitDx=0;exitDy=0;entryX=1;entryY=0.5;entryDx=0;entryDy=0;" parent="1" source="13" target="73" edge="1">
                    <mxGeometry width="160" relative="1" as="geometry">
                        <mxPoint x="520" y="910" as="sourcePoint"/>
                        <mxPoint x="95" y="865" as="targetPoint"/>
                    </mxGeometry>
                </mxCell>
                <mxCell id="ER9CD2LJtz95JqeX7eWr-208" value="" style="endArrow=open;endFill=1;endSize=12;html=1;exitX=0.5;exitY=0;exitDx=0;exitDy=0;entryX=0.5;entryY=1;entryDx=0;entryDy=0;" parent="1" source="40" target="41" edge="1">
                    <mxGeometry width="160" relative="1" as="geometry">
                        <mxPoint x="770" y="870" as="sourcePoint"/>
                        <mxPoint x="450" y="870" as="targetPoint"/>
                    </mxGeometry>
                </mxCell>
                <mxCell id="ER9CD2LJtz95JqeX7eWr-210" value="" style="endArrow=open;endFill=1;endSize=12;html=1;exitX=0.5;exitY=0;exitDx=0;exitDy=0;entryX=0.5;entryY=1;entryDx=0;entryDy=0;" parent="1" source="32" target="41" edge="1">
                    <mxGeometry width="160" relative="1" as="geometry">
                        <mxPoint x="780" y="880" as="sourcePoint"/>
                        <mxPoint x="460" y="880" as="targetPoint"/>
                    </mxGeometry>
                </mxCell>
                <mxCell id="ER9CD2LJtz95JqeX7eWr-211" value="" style="endArrow=open;endFill=1;endSize=12;html=1;exitX=0.5;exitY=0;exitDx=0;exitDy=0;entryX=0.5;entryY=1;entryDx=0;entryDy=0;" parent="1" source="35" target="41" edge="1">
                    <mxGeometry width="160" relative="1" as="geometry">
                        <mxPoint x="790" y="890" as="sourcePoint"/>
                        <mxPoint x="470" y="890" as="targetPoint"/>
                    </mxGeometry>
                </mxCell>
                <mxCell id="ER9CD2LJtz95JqeX7eWr-213" value="" style="endArrow=open;endFill=1;endSize=12;html=1;exitX=0;exitY=0.5;exitDx=0;exitDy=0;entryX=1;entryY=0.5;entryDx=0;entryDy=0;" parent="1" source="37" target="140" edge="1">
                    <mxGeometry width="160" relative="1" as="geometry">
                        <mxPoint x="2160" y="520" as="sourcePoint"/>
                        <mxPoint x="2300" y="520" as="targetPoint"/>
                    </mxGeometry>
                </mxCell>
                <mxCell id="ER9CD2LJtz95JqeX7eWr-214" value="" style="endArrow=open;endFill=1;endSize=12;html=1;exitX=1;exitY=0.5;exitDx=0;exitDy=0;entryX=0;entryY=0.5;entryDx=0;entryDy=0;" parent="1" source="39" target="140" edge="1">
                    <mxGeometry width="160" relative="1" as="geometry">
                        <mxPoint x="1990" y="800" as="sourcePoint"/>
                        <mxPoint x="1910" y="710" as="targetPoint"/>
                    </mxGeometry>
                </mxCell>
                <mxCell id="ER9CD2LJtz95JqeX7eWr-215" value="" style="endArrow=open;endFill=1;endSize=12;html=1;exitX=1;exitY=0.5;exitDx=0;exitDy=0;entryX=0;entryY=0.5;entryDx=0;entryDy=0;" parent="1" source="33" target="140" edge="1">
                    <mxGeometry width="160" relative="1" as="geometry">
                        <mxPoint x="2380" y="745" as="sourcePoint"/>
                        <mxPoint x="2300" y="655" as="targetPoint"/>
                    </mxGeometry>
                </mxCell>
                <mxCell id="ER9CD2LJtz95JqeX7eWr-216" value="" style="endArrow=open;endFill=1;endSize=12;html=1;exitX=1;exitY=0.5;exitDx=0;exitDy=0;entryX=0;entryY=0.5;entryDx=0;entryDy=0;" parent="1" source="31" target="140" edge="1">
                    <mxGeometry width="160" relative="1" as="geometry">
                        <mxPoint x="1770" y="1375" as="sourcePoint"/>
                        <mxPoint x="1970" y="645" as="targetPoint"/>
                    </mxGeometry>
                </mxCell>
                <mxCell id="ER9CD2LJtz95JqeX7eWr-217" value="&lt;font style=&quot;font-size: 48px;&quot;&gt;Model&lt;/font&gt;" style="text;strokeColor=none;fillColor=none;align=left;verticalAlign=top;spacingLeft=4;spacingRight=4;overflow=hidden;rotatable=0;points=[[0,0.5],[1,0.5]];portConstraint=eastwest;whiteSpace=wrap;html=1;" parent="1" vertex="1">
                    <mxGeometry x="540" y="50" width="140" height="70" as="geometry"/>
                </mxCell>
                <mxCell id="ER9CD2LJtz95JqeX7eWr-218" value="&lt;font style=&quot;font-size: 48px;&quot;&gt;Controller&lt;/font&gt;" style="text;strokeColor=none;fillColor=none;align=left;verticalAlign=top;spacingLeft=4;spacingRight=4;overflow=hidden;rotatable=0;points=[[0,0.5],[1,0.5]];portConstraint=eastwest;whiteSpace=wrap;html=1;" parent="1" vertex="1">
                    <mxGeometry x="935" y="50" width="230" height="70" as="geometry"/>
                </mxCell>
                <mxCell id="ER9CD2LJtz95JqeX7eWr-219" value="&lt;font style=&quot;font-size: 48px;&quot;&gt;View&lt;/font&gt;" style="text;strokeColor=none;fillColor=none;align=left;verticalAlign=top;spacingLeft=4;spacingRight=4;overflow=hidden;rotatable=0;points=[[0,0.5],[1,0.5]];portConstraint=eastwest;whiteSpace=wrap;html=1;" parent="1" vertex="1">
                    <mxGeometry x="1535" y="60" width="115" height="70" as="geometry"/>
                </mxCell>
                <mxCell id="ER9CD2LJtz95JqeX7eWr-220" value="&lt;font style=&quot;font-size: 24px;&quot;&gt;Intermediate (data classes)&lt;/font&gt;&lt;div&gt;&lt;font style=&quot;font-size: 24px;&quot;&gt;within model&lt;/font&gt;&lt;/div&gt;" style="text;strokeColor=none;fillColor=none;align=left;verticalAlign=top;spacingLeft=4;spacingRight=4;overflow=hidden;rotatable=0;points=[[0,0.5],[1,0.5]];portConstraint=eastwest;whiteSpace=wrap;html=1;" parent="1" vertex="1">
                    <mxGeometry x="-55" y="120" width="310" height="60" as="geometry"/>
                </mxCell>
            </root>
        </mxGraphModel>
    </diagram>
</mxfile>